<svg width="536" height="201" viewBox="0 0 536 201" fill="none" xmlns="http://www.w3.org/2000/svg">
<rect x="352" y="140" width="152" height="28" fill="#0066FF" fill-opacity="0.25"/>
<path d="M382.478 159.328H395.278V160.464H382.478V159.328ZM381.07 148.048H395.134V149.152H381.07V148.048ZM381.902 150.928H383.086V161.312H381.902V150.928ZM386.014 153.536V154.864H392.142V153.536H386.014ZM386.014 155.728V157.056H392.142V155.728H386.014ZM386.014 151.376V152.672H392.142V151.376H386.014ZM384.862 150.464H393.342V157.968H384.862V150.464ZM387.694 146.512L389.07 146.608C388.91 148.112 388.654 149.888 388.43 151.008L387.246 150.912C387.438 149.728 387.646 147.824 387.694 146.512ZM406.942 147.168L407.566 146.464C408.366 146.72 409.358 147.168 409.87 147.568L409.214 148.368C408.734 147.952 407.758 147.456 406.942 147.168ZM398.67 148.192H411.134V149.184H398.67V148.192ZM399.806 150.272H404.718V151.12H399.806V150.272ZM400.062 152.208H401.07V155.12H400.062V152.208ZM408.558 149.952L409.678 150.224C408.782 152.88 407.166 155.04 405.214 156.432C405.038 156.208 404.59 155.808 404.35 155.6C406.286 154.352 407.79 152.352 408.558 149.952ZM404.782 146.56H405.934C406.11 151.488 408.286 155.488 409.918 155.472C410.318 155.472 410.478 154.896 410.558 153.44C410.798 153.664 411.198 153.872 411.502 153.984C411.31 156.016 410.878 156.576 409.854 156.576C407.326 156.576 405.038 151.936 404.782 146.56ZM400.062 152.208H404.462V155.568H400.062V154.704H403.438V153.056H400.062V152.208ZM400.862 157.04H402.046V159.52C402.046 159.92 402.206 160 403.054 160C403.454 160 405.454 160 405.982 160C406.686 160 406.798 159.808 406.862 158.32C407.118 158.512 407.614 158.672 407.95 158.752C407.79 160.64 407.438 161.088 406.078 161.088C405.71 161.088 403.326 161.088 402.974 161.088C401.278 161.088 400.862 160.768 400.862 159.536V157.04ZM402.11 156.512L402.878 155.84C403.886 156.304 405.07 157.072 405.63 157.696L404.814 158.464C404.27 157.84 403.102 157.024 402.11 156.512ZM407.63 157.52L408.606 156.976C409.758 157.872 410.958 159.2 411.454 160.192L410.382 160.784C409.934 159.808 408.782 158.448 407.63 157.52ZM398.83 157.136L399.886 157.504C399.486 158.8 398.83 160.144 397.694 160.96L396.702 160.288C397.774 159.552 398.478 158.336 398.83 157.136ZM398.11 148.192H399.23V150.608C399.23 152.464 398.942 155.088 397.47 156.896C397.31 156.672 396.83 156.272 396.59 156.144C397.934 154.48 398.11 152.224 398.11 150.592V148.192ZM414.174 149.136H419.038V159.6H414.174V158.512H417.918V150.208H414.174V149.136ZM413.454 149.136H414.574V160.88H413.454V149.136ZM414.094 153.584H418.51V154.656H414.094V153.584ZM415.902 146.528L417.198 146.768C416.878 147.76 416.478 148.864 416.158 149.584L415.198 149.344C415.47 148.576 415.774 147.36 415.902 146.528ZM421.31 149.088H426.222V150.208H421.31V149.088ZM425.806 149.088H426.926C426.926 149.088 426.926 149.536 426.926 149.712C426.67 157.056 426.446 159.536 425.806 160.32C425.454 160.784 425.086 160.928 424.526 160.976C423.982 161.04 423.038 161.008 422.142 160.96C422.11 160.608 421.966 160.112 421.742 159.792C422.782 159.872 423.742 159.888 424.11 159.888C424.43 159.888 424.622 159.84 424.798 159.632C425.326 159.056 425.582 156.4 425.806 149.344V149.088ZM421.646 146.496L422.798 146.768C422.206 149.152 421.262 151.504 420.158 153.024C419.95 152.832 419.454 152.496 419.166 152.336C420.254 150.928 421.134 148.72 421.646 146.496ZM420.91 153.248L421.838 152.704C422.75 153.84 423.854 155.392 424.366 156.336L423.342 156.976C422.862 156 421.79 154.416 420.91 153.248ZM429.326 149.472C429.934 149.456 430.446 149.424 430.766 149.392C431.79 149.28 434.814 148.992 437.758 148.736C439.518 148.592 441.006 148.496 442.078 148.464L442.094 149.744C441.166 149.728 439.774 149.76 438.958 149.984C436.67 150.72 435.278 153.168 435.278 155.056C435.278 158.176 438.206 159.184 440.798 159.28L440.334 160.592C437.374 160.48 434.014 158.912 434.014 155.328C434.014 152.848 435.534 150.8 436.99 149.936C435.278 150.112 431.198 150.512 429.47 150.88L429.326 149.472ZM439.774 151.696C440.142 152.224 440.75 153.216 441.102 153.936L440.27 154.304C439.902 153.536 439.454 152.72 438.974 152.048L439.774 151.696ZM441.518 151.024C441.918 151.552 442.542 152.528 442.91 153.232L442.094 153.632C441.71 152.864 441.23 152.064 440.734 151.392L441.518 151.024ZM451.458 147.344C451.394 147.536 451.33 147.824 451.282 148.048C451.01 149.392 450.738 151.92 450.738 154.112C450.738 156.192 451.186 158.112 451.682 159.616L450.514 159.968C450.05 158.544 449.618 156.272 449.618 154.24C449.618 152.048 449.938 149.456 450.082 148.08C450.114 147.792 450.13 147.504 450.13 147.296L451.458 147.344ZM448.882 149.312C451.698 149.312 454.482 149.088 456.69 148.592L456.706 149.776C454.402 150.176 451.25 150.416 448.866 150.416C448.178 150.416 446.93 150.352 446.274 150.32L446.242 149.12C446.802 149.216 448.194 149.312 448.882 149.312ZM455.554 151.2C455.458 151.408 455.314 151.84 455.218 152.096C454.274 155.056 452.674 157.28 450.994 158.576C449.97 159.36 448.69 159.952 447.554 159.952C446.498 159.952 445.666 159.312 445.666 157.952C445.666 155.76 447.698 153.504 450.066 152.592C451.138 152.176 452.434 151.936 453.474 151.936C456.498 151.936 458.402 153.696 458.402 155.936C458.402 158.224 456.882 160.224 453.17 160.816L452.482 159.744C455.362 159.424 457.154 157.936 457.154 155.872C457.154 154.32 455.842 152.96 453.458 152.96C452.114 152.96 450.93 153.344 450.114 153.712C448.306 154.512 446.866 156.272 446.866 157.744C446.866 158.4 447.186 158.72 447.778 158.72C448.578 158.72 449.618 158.272 450.642 157.376C452.066 156.128 453.378 154.4 454.114 151.808C454.178 151.568 454.258 151.136 454.274 150.88L455.554 151.2ZM463.73 148.224C464.082 148.256 464.53 148.272 464.85 148.272C465.698 148.272 469.49 148.16 470.338 148.08C470.818 148.032 471.042 148 471.218 147.936L471.954 148.88C471.666 149.072 471.346 149.28 471.042 149.52C470.258 150.128 468.082 152 466.834 153.024C467.57 152.784 468.338 152.704 469.058 152.704C471.714 152.704 473.618 154.288 473.618 156.448C473.618 159.024 471.49 160.704 468.098 160.704C465.922 160.704 464.594 159.76 464.594 158.416C464.594 157.328 465.586 156.336 467.058 156.336C469.186 156.336 470.258 157.84 470.37 159.456L469.218 159.648C469.122 158.288 468.338 157.312 467.058 157.312C466.322 157.312 465.762 157.76 465.762 158.32C465.762 159.104 466.642 159.568 467.906 159.568C470.626 159.568 472.338 158.448 472.338 156.448C472.338 154.864 470.834 153.696 468.738 153.696C466.082 153.696 464.642 154.816 462.626 156.88L461.698 155.952C463.026 154.864 465.09 153.136 466.002 152.352C466.898 151.616 468.914 149.936 469.714 149.216C468.866 149.264 465.666 149.392 464.834 149.44C464.466 149.472 464.114 149.488 463.762 149.536L463.73 148.224Z" fill="black"/>
<rect x="352" y="104" width="152" height="28" fill="#0066FF" fill-opacity="0.25"/>
<path d="M384.462 114.624V116.144H391.79V114.624H384.462ZM384.462 117.056V118.592H391.79V117.056H384.462ZM384.462 112.192V113.712H391.79V112.192H384.462ZM383.278 111.232H393.022V119.552H383.278V111.232ZM380.974 120.656H395.182V121.776H380.974V120.656ZM389.406 123.088L390.27 122.288C392.11 122.944 394.126 123.808 395.358 124.464L394.206 125.28C393.086 124.624 391.214 123.76 389.406 123.088ZM385.694 122.208L386.782 122.976C385.422 123.84 383.358 124.736 381.726 125.28C381.534 125.024 381.166 124.608 380.894 124.352C382.542 123.856 384.622 122.96 385.694 122.208ZM400.078 110.624L401.214 110.96C400.286 113.664 398.83 116.384 397.262 118.192C397.134 117.92 396.782 117.296 396.558 117.008C397.982 115.44 399.294 113.04 400.078 110.624ZM398.638 114.752L399.758 113.616L399.774 113.632V125.264H398.638V114.752ZM405.358 110.624H406.526V125.2H405.358V110.624ZM400.846 113.792H411.326V114.944H400.846V113.792ZM402.718 121.216H409.118V122.304H402.718V121.216ZM407.102 114.384C408.014 117.248 409.774 120.224 411.646 121.728C411.358 121.936 410.958 122.352 410.734 122.672C408.862 120.96 407.15 117.776 406.206 114.656L407.102 114.384ZM404.862 114.32L405.742 114.592C404.75 117.792 403.006 120.96 401.07 122.72C400.894 122.416 400.494 122 400.222 121.808C402.094 120.288 403.918 117.248 404.862 114.32ZM414.174 113.136H419.038V123.6H414.174V122.512H417.918V114.208H414.174V113.136ZM413.454 113.136H414.574V124.88H413.454V113.136ZM414.094 117.584H418.51V118.656H414.094V117.584ZM415.902 110.528L417.198 110.768C416.878 111.76 416.478 112.864 416.158 113.584L415.198 113.344C415.47 112.576 415.774 111.36 415.902 110.528ZM421.31 113.088H426.222V114.208H421.31V113.088ZM425.806 113.088H426.926C426.926 113.088 426.926 113.536 426.926 113.712C426.67 121.056 426.446 123.536 425.806 124.32C425.454 124.784 425.086 124.928 424.526 124.976C423.982 125.04 423.038 125.008 422.142 124.96C422.11 124.608 421.966 124.112 421.742 123.792C422.782 123.872 423.742 123.888 424.11 123.888C424.43 123.888 424.622 123.84 424.798 123.632C425.326 123.056 425.582 120.4 425.806 113.344V113.088ZM421.646 110.496L422.798 110.768C422.206 113.152 421.262 115.504 420.158 117.024C419.95 116.832 419.454 116.496 419.166 116.336C420.254 114.928 421.134 112.72 421.646 110.496ZM420.91 117.248L421.838 116.704C422.75 117.84 423.854 119.392 424.366 120.336L423.342 120.976C422.862 120 421.79 118.416 420.91 117.248ZM429.326 113.472C429.934 113.456 430.446 113.424 430.766 113.392C431.79 113.28 434.814 112.992 437.758 112.736C439.518 112.592 441.006 112.496 442.078 112.464L442.094 113.744C441.166 113.728 439.774 113.76 438.958 113.984C436.67 114.72 435.278 117.168 435.278 119.056C435.278 122.176 438.206 123.184 440.798 123.28L440.334 124.592C437.374 124.48 434.014 122.912 434.014 119.328C434.014 116.848 435.534 114.8 436.99 113.936C435.278 114.112 431.198 114.512 429.47 114.88L429.326 113.472ZM439.774 115.696C440.142 116.224 440.75 117.216 441.102 117.936L440.27 118.304C439.902 117.536 439.454 116.72 438.974 116.048L439.774 115.696ZM441.518 115.024C441.918 115.552 442.542 116.528 442.91 117.232L442.094 117.632C441.71 116.864 441.23 116.064 440.734 115.392L441.518 115.024ZM451.458 111.344C451.394 111.536 451.33 111.824 451.282 112.048C451.01 113.392 450.738 115.92 450.738 118.112C450.738 120.192 451.186 122.112 451.682 123.616L450.514 123.968C450.05 122.544 449.618 120.272 449.618 118.24C449.618 116.048 449.938 113.456 450.082 112.08C450.114 111.792 450.13 111.504 450.13 111.296L451.458 111.344ZM448.882 113.312C451.698 113.312 454.482 113.088 456.69 112.592L456.706 113.776C454.402 114.176 451.25 114.416 448.866 114.416C448.178 114.416 446.93 114.352 446.274 114.32L446.242 113.12C446.802 113.216 448.194 113.312 448.882 113.312ZM455.554 115.2C455.458 115.408 455.314 115.84 455.218 116.096C454.274 119.056 452.674 121.28 450.994 122.576C449.97 123.36 448.69 123.952 447.554 123.952C446.498 123.952 445.666 123.312 445.666 121.952C445.666 119.76 447.698 117.504 450.066 116.592C451.138 116.176 452.434 115.936 453.474 115.936C456.498 115.936 458.402 117.696 458.402 119.936C458.402 122.224 456.882 124.224 453.17 124.816L452.482 123.744C455.362 123.424 457.154 121.936 457.154 119.872C457.154 118.32 455.842 116.96 453.458 116.96C452.114 116.96 450.93 117.344 450.114 117.712C448.306 118.512 446.866 120.272 446.866 121.744C446.866 122.4 447.186 122.72 447.778 122.72C448.578 122.72 449.618 122.272 450.642 121.376C452.066 120.128 453.378 118.4 454.114 115.808C454.178 115.568 454.258 115.136 454.274 114.88L455.554 115.2ZM463.73 112.224C464.082 112.256 464.53 112.272 464.85 112.272C465.698 112.272 469.49 112.16 470.338 112.08C470.818 112.032 471.042 112 471.218 111.936L471.954 112.88C471.666 113.072 471.346 113.28 471.042 113.52C470.258 114.128 468.082 116 466.834 117.024C467.57 116.784 468.338 116.704 469.058 116.704C471.714 116.704 473.618 118.288 473.618 120.448C473.618 123.024 471.49 124.704 468.098 124.704C465.922 124.704 464.594 123.76 464.594 122.416C464.594 121.328 465.586 120.336 467.058 120.336C469.186 120.336 470.258 121.84 470.37 123.456L469.218 123.648C469.122 122.288 468.338 121.312 467.058 121.312C466.322 121.312 465.762 121.76 465.762 122.32C465.762 123.104 466.642 123.568 467.906 123.568C470.626 123.568 472.338 122.448 472.338 120.448C472.338 118.864 470.834 117.696 468.738 117.696C466.082 117.696 464.642 118.816 462.626 120.88L461.698 119.952C463.026 118.864 465.09 117.136 466.002 116.352C466.898 115.616 468.914 113.936 469.714 113.216C468.866 113.264 465.666 113.392 464.834 113.44C464.466 113.472 464.114 113.488 463.762 113.536L463.73 112.224Z" fill="black"/>
<rect x="352.5" y="68.5" width="151" height="27" rx="5.5" fill="white" stroke="#0066FF"/>
<path d="M388.448 86.864C391.152 86.464 393.584 85.216 393.568 82.464C393.568 81.232 392.592 79.6 390.464 79.6C388.416 79.6 386.576 80.736 385.024 82.352V80.928C386.944 79.12 388.976 78.448 390.656 78.448C392.88 78.448 394.848 80 394.848 82.48C394.864 85.712 392.512 87.392 389.024 88.064L388.448 86.864ZM384.832 79.152C384.32 79.216 382.576 79.44 381.392 79.616L381.248 78.288C381.6 78.304 381.904 78.304 382.304 78.272C383.152 78.224 385.136 77.984 385.888 77.744L386.352 78.288C386.08 78.704 385.648 79.392 385.376 79.84L384.896 82.032C384.16 83.168 382.672 85.328 381.664 86.72L380.864 85.632C381.856 84.384 384.016 81.44 384.64 80.384L384.704 79.568L384.832 79.152ZM384.672 76.496C384.672 76.128 384.688 75.712 384.608 75.312L386.128 75.36C385.904 76.4 385.408 80.976 385.408 83.792C385.408 85.248 385.408 86.224 385.472 87.648C385.488 87.92 385.536 88.32 385.552 88.624H384.176C384.192 88.4 384.224 87.936 384.224 87.68C384.224 86.128 384.24 85.328 384.256 83.568C384.288 82.16 384.672 77.088 384.672 76.496ZM402.992 75.52C402.928 75.824 402.864 76.16 402.8 76.48C402.704 77.056 402.48 78.368 402.272 79.36C401.728 81.6 400.576 85.584 398.768 88.512L397.472 87.984C399.296 85.552 400.576 81.28 401.008 79.312C401.296 78.048 401.52 76.608 401.52 75.376L402.992 75.52ZM408.512 77.232C409.504 78.528 410.896 81.472 411.424 82.96L410.192 83.552C409.712 81.904 408.464 79.072 407.344 77.76L408.512 77.232ZM397.232 79.04C397.744 79.056 398.16 79.056 398.672 79.04C399.856 79.008 403.104 78.64 404.192 78.64C405.616 78.64 406.784 79.184 406.784 81.36C406.784 83.264 406.528 85.808 405.872 87.136C405.36 88.208 404.56 88.464 403.536 88.464C402.912 88.464 402.16 88.352 401.648 88.24L401.44 86.896C402.112 87.104 402.944 87.232 403.392 87.232C403.984 87.232 404.464 87.104 404.8 86.4C405.312 85.328 405.552 83.232 405.552 81.504C405.552 80.048 404.88 79.776 403.856 79.776C402.784 79.776 399.792 80.128 398.816 80.224C398.448 80.272 397.776 80.352 397.376 80.416L397.232 79.04ZM417.408 75.376C417.072 76.56 416.768 78.72 416.672 79.84C417.328 78.192 418.992 76.192 421.024 76.192C423.136 76.192 424.672 78.336 424.672 81.696C424.672 86.128 421.872 88.096 417.92 88.816L417.152 87.664C420.64 87.136 423.344 85.728 423.344 81.712C423.344 79.184 422.496 77.36 420.816 77.36C418.816 77.36 416.96 80.272 416.768 82.368C416.688 82.976 416.688 83.536 416.8 84.336L415.552 84.432C415.472 83.824 415.392 82.928 415.392 81.888C415.392 80.368 415.696 78.016 415.888 76.704C415.952 76.224 415.984 75.776 416.016 75.328L417.408 75.376ZM436.864 77.856C436.256 77.232 435.2 76.256 434.528 75.744L435.44 75.088C435.968 75.504 437.184 76.512 437.776 77.136L436.864 77.856ZM431.776 76.464C431.904 76.736 432.176 77.248 432.336 77.552C432.96 78.672 433.728 80.288 434.384 81.744C435.248 83.744 436.272 86.704 436.816 88.48L435.44 88.848C434.944 86.944 434.176 84.384 433.264 82.288C432.512 80.608 431.792 79.056 431.248 78.144C431.056 77.824 430.736 77.312 430.48 76.992L431.776 76.464ZM428.944 81.136C429.408 81.024 429.968 80.832 430.256 80.704C432.48 79.856 436.368 77.68 439.024 77.68C441.248 77.68 442.592 78.928 442.592 80.672C442.592 82.528 441.424 83.92 438.928 83.92C438.032 83.92 437.12 83.696 436.528 83.472L436.56 82.208C437.184 82.496 437.984 82.736 438.832 82.736C440.592 82.736 441.312 81.76 441.312 80.624C441.312 79.68 440.56 78.8 438.992 78.8C436.32 78.8 431.584 81.568 429.568 82.448L428.944 81.136ZM454.032 75.328C454 75.52 453.952 76.144 453.952 76.336C453.904 77.376 453.936 80.464 453.952 81.744L452.736 81.12C452.736 80.416 452.72 77.232 452.672 76.352C452.64 75.92 452.592 75.472 452.56 75.328H454.032ZM445.52 77.568C447.696 77.536 451.696 77.392 454.16 77.392C456.112 77.392 458.096 77.392 458.848 77.408L458.832 78.592C457.936 78.544 456.496 78.512 454.144 78.512C451.392 78.512 447.968 78.624 445.552 78.8L445.52 77.568ZM453.92 82.208C453.92 84.352 452.928 85.424 451.472 85.424C450.128 85.424 448.832 84.48 448.832 82.736C448.832 81.152 450.144 79.968 451.664 79.968C453.52 79.968 454.464 81.344 454.464 83.184C454.464 85.36 453.408 87.76 449.696 88.864L448.624 87.824C451.536 87.136 453.232 85.712 453.232 83.072C453.232 81.632 452.528 81.024 451.664 81.024C450.816 81.024 450.032 81.68 450.032 82.72C450.032 83.728 450.784 84.304 451.664 84.304C452.656 84.304 453.296 83.472 453.04 81.76L453.92 82.208ZM463.568 76.848C463.488 77.216 463.44 77.984 463.424 78.4C463.408 79.392 463.424 80.864 463.536 82.176C463.808 84.848 464.576 86.624 465.728 86.624C466.544 86.624 467.296 84.976 467.712 83.376L468.72 84.512C467.744 87.216 466.784 88.144 465.696 88.144C464.176 88.144 462.736 86.64 462.288 82.496C462.144 81.12 462.112 79.168 462.112 78.24C462.112 77.872 462.112 77.184 462.016 76.816L463.568 76.848ZM471.888 77.28C473.328 79.136 474.48 82.544 474.72 85.248L473.424 85.76C473.152 82.88 472.176 79.584 470.656 77.712L471.888 77.28Z" fill="black"/>
<rect x="192" y="140" width="152" height="28" fill="#0066FF" fill-opacity="0.25"/>
<path d="M228.368 159.664C228.432 159.424 228.48 159.088 228.48 158.768C228.48 158.032 228.48 150.192 228.48 149.184C228.48 148.576 228.4 148.128 228.4 148H229.872C229.856 148.128 229.792 148.592 229.792 149.2C229.792 150.192 229.792 157.936 229.792 158.416C231.28 157.744 233.248 156.288 234.464 154.48L235.232 155.584C233.84 157.456 231.632 159.088 229.776 160.016C229.504 160.144 229.344 160.288 229.216 160.368L228.368 159.664ZM221.04 159.6C222.4 158.64 223.344 157.216 223.824 155.664C224.304 154.192 224.304 151.008 224.304 149.216C224.304 148.752 224.272 148.4 224.192 148.064H225.664C225.648 148.24 225.584 148.736 225.584 149.2C225.584 150.976 225.536 154.416 225.104 156.016C224.624 157.728 223.6 159.28 222.256 160.4L221.04 159.6ZM237.616 153.072C238.112 153.12 238.944 153.168 239.856 153.168C241.024 153.168 247.44 153.168 248.624 153.168C249.424 153.168 249.984 153.104 250.352 153.072V154.64C250.016 154.624 249.344 154.576 248.64 154.576C247.424 154.576 241.04 154.576 239.856 154.576C238.976 154.576 238.128 154.608 237.616 154.64V153.072ZM260.368 159.664C260.432 159.424 260.48 159.088 260.48 158.768C260.48 158.032 260.48 150.192 260.48 149.184C260.48 148.576 260.4 148.128 260.4 148H261.872C261.856 148.128 261.792 148.592 261.792 149.2C261.792 150.192 261.792 157.936 261.792 158.416C263.28 157.744 265.248 156.288 266.464 154.48L267.232 155.584C265.84 157.456 263.632 159.088 261.776 160.016C261.504 160.144 261.344 160.288 261.216 160.368L260.368 159.664ZM253.04 159.6C254.4 158.64 255.344 157.216 255.824 155.664C256.304 154.192 256.304 151.008 256.304 149.216C256.304 148.752 256.272 148.4 256.192 148.064H257.664C257.648 148.24 257.584 148.736 257.584 149.2C257.584 150.976 257.536 154.416 257.104 156.016C256.624 157.728 255.6 159.28 254.256 160.4L253.04 159.6ZM274.784 147.584C274.72 147.872 274.656 148.224 274.592 148.528C274.48 149.104 274.272 150.416 274.048 151.408C273.504 153.664 272.368 157.648 270.56 160.56L269.248 160.048C271.072 157.6 272.352 153.328 272.784 151.376C273.088 150.096 273.296 148.656 273.296 147.424L274.784 147.584ZM280.288 149.424C281.28 150.72 282.672 153.632 283.216 155.104L281.968 155.696C281.504 154.064 280.24 151.28 279.12 149.952L280.288 149.424ZM269.024 151.088C269.52 151.12 269.936 151.104 270.448 151.088C271.648 151.056 274.896 150.704 275.984 150.704C277.408 150.704 278.576 151.248 278.576 153.408C278.576 155.312 278.32 157.856 277.648 159.184C277.152 160.256 276.352 160.528 275.312 160.528C274.704 160.528 273.936 160.416 273.44 160.288L273.216 158.96C273.888 159.168 274.736 159.28 275.184 159.28C275.776 159.28 276.256 159.152 276.576 158.464C277.088 157.376 277.344 155.296 277.344 153.568C277.344 152.096 276.672 151.824 275.648 151.824C274.576 151.824 271.568 152.192 270.592 152.288C270.224 152.336 269.568 152.416 269.152 152.48L269.024 151.088ZM280.464 147.104C280.864 147.68 281.44 148.656 281.776 149.312L280.912 149.696C280.592 149.04 280.048 148.08 279.6 147.472L280.464 147.104ZM282.224 146.464C282.656 147.056 283.264 148.064 283.584 148.656L282.704 149.04C282.368 148.336 281.84 147.424 281.376 146.832L282.224 146.464ZM291.536 147.344C291.472 147.536 291.408 147.824 291.36 148.048C291.088 149.392 290.816 151.92 290.816 154.112C290.816 156.192 291.264 158.112 291.76 159.616L290.592 159.968C290.128 158.544 289.696 156.272 289.696 154.24C289.696 152.048 290.016 149.456 290.16 148.08C290.192 147.792 290.208 147.504 290.208 147.296L291.536 147.344ZM288.96 149.312C291.776 149.312 294.56 149.088 296.768 148.592L296.784 149.776C294.48 150.176 291.328 150.416 288.944 150.416C288.256 150.416 287.008 150.352 286.352 150.32L286.32 149.12C286.88 149.216 288.272 149.312 288.96 149.312ZM295.632 151.2C295.536 151.408 295.392 151.84 295.296 152.096C294.352 155.056 292.752 157.28 291.072 158.576C290.048 159.36 288.768 159.952 287.632 159.952C286.576 159.952 285.744 159.312 285.744 157.952C285.744 155.76 287.776 153.504 290.144 152.592C291.216 152.176 292.512 151.936 293.552 151.936C296.576 151.936 298.48 153.696 298.48 155.936C298.48 158.224 296.96 160.224 293.248 160.816L292.56 159.744C295.44 159.424 297.232 157.936 297.232 155.872C297.232 154.32 295.92 152.96 293.536 152.96C292.192 152.96 291.008 153.344 290.192 153.712C288.384 154.512 286.944 156.272 286.944 157.744C286.944 158.4 287.264 158.72 287.856 158.72C288.656 158.72 289.696 158.272 290.72 157.376C292.144 156.128 293.456 154.4 294.192 151.808C294.256 151.568 294.336 151.136 294.352 150.88L295.632 151.2ZM303.808 148.224C304.16 148.256 304.608 148.272 304.928 148.272C305.776 148.272 309.568 148.16 310.416 148.08C310.896 148.032 311.12 148 311.296 147.936L312.032 148.88C311.744 149.072 311.424 149.28 311.12 149.52C310.336 150.128 308.16 152 306.912 153.024C307.648 152.784 308.416 152.704 309.136 152.704C311.792 152.704 313.696 154.288 313.696 156.448C313.696 159.024 311.568 160.704 308.176 160.704C306 160.704 304.672 159.76 304.672 158.416C304.672 157.328 305.664 156.336 307.136 156.336C309.264 156.336 310.336 157.84 310.448 159.456L309.296 159.648C309.2 158.288 308.416 157.312 307.136 157.312C306.4 157.312 305.84 157.76 305.84 158.32C305.84 159.104 306.72 159.568 307.984 159.568C310.704 159.568 312.416 158.448 312.416 156.448C312.416 154.864 310.912 153.696 308.816 153.696C306.16 153.696 304.72 154.816 302.704 156.88L301.776 155.952C303.104 154.864 305.168 153.136 306.08 152.352C306.976 151.616 308.992 149.936 309.792 149.216C308.944 149.264 305.744 149.392 304.912 149.44C304.544 149.472 304.192 149.488 303.84 149.536L303.808 148.224Z" fill="black"/>
<path d="M192 104H344V132H192V104Z" fill="#0066FF" fill-opacity="0.25"/>
<path d="M230.128 110.64H231.312V113.808H230.128V110.64ZM226.736 113.328H235.136V114.432H226.736V113.328ZM226.208 113.328H227.376V116.976C227.376 119.408 227.088 122.912 225.376 125.264C225.168 125.056 224.672 124.736 224.416 124.608C226.032 122.384 226.208 119.248 226.208 116.976V113.328ZM230.064 115.456L231.312 115.664C230.784 118.272 229.968 121.6 229.264 123.68L228.208 123.44C228.896 121.344 229.68 117.904 230.064 115.456ZM227.008 123.168C228.768 123.04 231.504 122.8 234.144 122.56L234.176 123.616C231.68 123.872 229.056 124.128 227.216 124.304L227.008 123.168ZM231.952 119.312L232.96 118.944C234.064 120.832 235.136 123.296 235.488 124.848L234.384 125.264C234.064 123.712 233.008 121.216 231.952 119.312ZM220.432 119.072C221.728 118.752 223.68 118.176 225.568 117.632L225.712 118.704C223.968 119.248 222.128 119.824 220.704 120.256L220.432 119.072ZM220.704 113.792H225.584V114.912H220.704V113.792ZM222.88 110.576H224.032V123.824C224.032 124.512 223.888 124.848 223.472 125.04C223.056 125.248 222.4 125.28 221.36 125.28C221.312 124.976 221.152 124.448 220.992 124.112C221.712 124.144 222.384 124.144 222.576 124.128C222.784 124.128 222.88 124.064 222.88 123.824V110.576ZM244.08 113.552H250.048V114.448H244.08V113.552ZM244.08 115.792H250.048V116.688H244.08V115.792ZM242.208 118.048H251.36V119.12H242.208V118.048ZM243.52 111.168H250.672V112.224H244.672V118.608H243.52V111.168ZM242.192 123.92C243.584 123.728 245.696 123.376 247.744 123.024L247.792 124.08C245.888 124.448 243.92 124.8 242.416 125.072L242.192 123.92ZM247.072 118.56C247.744 121.232 249.232 123.376 251.584 124.272C251.312 124.512 250.96 124.992 250.784 125.312C248.32 124.192 246.832 121.824 246.064 118.752L247.072 118.56ZM250.32 119.568L251.312 120.144C250.4 120.88 249.264 121.664 248.384 122.16L247.632 121.68C248.496 121.136 249.664 120.208 250.32 119.568ZM243.552 118.416H244.704V123.952L243.552 124.176V118.416ZM237.408 118.384H241.52V119.472H237.408V118.384ZM240.992 118.384H242.192C242.192 118.384 242.176 118.736 242.144 118.896C241.888 122.784 241.632 124.272 241.152 124.8C240.848 125.104 240.56 125.232 240.08 125.264C239.696 125.296 238.944 125.296 238.176 125.248C238.16 124.912 238.032 124.432 237.856 124.128C238.592 124.208 239.296 124.208 239.568 124.208C239.84 124.208 240 124.176 240.128 124.032C240.496 123.664 240.768 122.256 240.992 118.576V118.384ZM237.456 115.072H238.56C238.384 116.72 238.112 118.848 237.872 120.144L236.752 120.016C237.008 118.736 237.312 116.64 237.456 115.072ZM237.616 115.072H240.816V112.512H236.96V111.408H241.92V116.192H237.616V115.072ZM254.736 110.56H255.952V125.264H254.736V110.56ZM253.264 113.6L254.176 113.744C254.096 115.04 253.808 116.896 253.376 118.048L252.432 117.728C252.864 116.656 253.152 114.896 253.264 113.6ZM256.064 113.504L256.896 113.136C257.392 114 257.888 115.136 258.064 115.824L257.168 116.272C256.992 115.568 256.512 114.4 256.064 113.504ZM259.328 111.312L260.496 111.504C260.08 113.84 259.376 116.112 258.48 117.616C258.24 117.44 257.696 117.184 257.392 117.056C258.336 115.648 258.976 113.472 259.328 111.312ZM259.344 113.952H266.784V115.104H258.976L259.344 113.952ZM261.936 110.624H263.136V124.224H261.936V110.624ZM258.528 118.432H266.432V119.568H258.528V118.432ZM257.328 123.568H267.168V124.72H257.328V123.568ZM274.784 111.584C274.72 111.872 274.656 112.224 274.592 112.528C274.48 113.104 274.272 114.416 274.048 115.408C273.504 117.664 272.368 121.648 270.56 124.56L269.248 124.048C271.072 121.6 272.352 117.328 272.784 115.376C273.088 114.096 273.296 112.656 273.296 111.424L274.784 111.584ZM280.288 113.424C281.28 114.72 282.672 117.632 283.216 119.104L281.968 119.696C281.504 118.064 280.24 115.28 279.12 113.952L280.288 113.424ZM269.024 115.088C269.52 115.12 269.936 115.104 270.448 115.088C271.648 115.056 274.896 114.704 275.984 114.704C277.408 114.704 278.576 115.248 278.576 117.408C278.576 119.312 278.32 121.856 277.648 123.184C277.152 124.256 276.352 124.528 275.312 124.528C274.704 124.528 273.936 124.416 273.44 124.288L273.216 122.96C273.888 123.168 274.736 123.28 275.184 123.28C275.776 123.28 276.256 123.152 276.576 122.464C277.088 121.376 277.344 119.296 277.344 117.568C277.344 116.096 276.672 115.824 275.648 115.824C274.576 115.824 271.568 116.192 270.592 116.288C270.224 116.336 269.568 116.416 269.152 116.48L269.024 115.088ZM280.464 111.104C280.864 111.68 281.44 112.656 281.776 113.312L280.912 113.696C280.592 113.04 280.048 112.08 279.6 111.472L280.464 111.104ZM282.224 110.464C282.656 111.056 283.264 112.064 283.584 112.656L282.704 113.04C282.368 112.336 281.84 111.424 281.376 110.832L282.224 110.464ZM291.536 111.344C291.472 111.536 291.408 111.824 291.36 112.048C291.088 113.392 290.816 115.92 290.816 118.112C290.816 120.192 291.264 122.112 291.76 123.616L290.592 123.968C290.128 122.544 289.696 120.272 289.696 118.24C289.696 116.048 290.016 113.456 290.16 112.08C290.192 111.792 290.208 111.504 290.208 111.296L291.536 111.344ZM288.96 113.312C291.776 113.312 294.56 113.088 296.768 112.592L296.784 113.776C294.48 114.176 291.328 114.416 288.944 114.416C288.256 114.416 287.008 114.352 286.352 114.32L286.32 113.12C286.88 113.216 288.272 113.312 288.96 113.312ZM295.632 115.2C295.536 115.408 295.392 115.84 295.296 116.096C294.352 119.056 292.752 121.28 291.072 122.576C290.048 123.36 288.768 123.952 287.632 123.952C286.576 123.952 285.744 123.312 285.744 121.952C285.744 119.76 287.776 117.504 290.144 116.592C291.216 116.176 292.512 115.936 293.552 115.936C296.576 115.936 298.48 117.696 298.48 119.936C298.48 122.224 296.96 124.224 293.248 124.816L292.56 123.744C295.44 123.424 297.232 121.936 297.232 119.872C297.232 118.32 295.92 116.96 293.536 116.96C292.192 116.96 291.008 117.344 290.192 117.712C288.384 118.512 286.944 120.272 286.944 121.744C286.944 122.4 287.264 122.72 287.856 122.72C288.656 122.72 289.696 122.272 290.72 121.376C292.144 120.128 293.456 118.4 294.192 115.808C294.256 115.568 294.336 115.136 294.352 114.88L295.632 115.2ZM303.808 112.224C304.16 112.256 304.608 112.272 304.928 112.272C305.776 112.272 309.568 112.16 310.416 112.08C310.896 112.032 311.12 112 311.296 111.936L312.032 112.88C311.744 113.072 311.424 113.28 311.12 113.52C310.336 114.128 308.16 116 306.912 117.024C307.648 116.784 308.416 116.704 309.136 116.704C311.792 116.704 313.696 118.288 313.696 120.448C313.696 123.024 311.568 124.704 308.176 124.704C306 124.704 304.672 123.76 304.672 122.416C304.672 121.328 305.664 120.336 307.136 120.336C309.264 120.336 310.336 121.84 310.448 123.456L309.296 123.648C309.2 122.288 308.416 121.312 307.136 121.312C306.4 121.312 305.84 121.76 305.84 122.32C305.84 123.104 306.72 123.568 307.984 123.568C310.704 123.568 312.416 122.448 312.416 120.448C312.416 118.864 310.912 117.696 308.816 117.696C306.16 117.696 304.72 118.816 302.704 120.88L301.776 119.952C303.104 118.864 305.168 117.136 306.08 116.352C306.976 115.616 308.992 113.936 309.792 113.216C308.944 113.264 305.744 113.392 304.912 113.44C304.544 113.472 304.192 113.488 303.84 113.536L303.808 112.224Z" fill="black"/>
<rect x="192.5" y="68.5" width="151" height="27" rx="5.5" fill="white" stroke="#0066FF"/>
<path d="M226.35 83.056H234.334V89.2H233.182V84.16H227.454V89.28H226.35V83.056ZM233.742 74.624L234.686 75.568C232.494 76.32 229.15 76.816 226.286 77.088C226.238 76.8 226.078 76.336 225.934 76.064C228.718 75.76 231.966 75.264 233.742 74.624ZM229.806 76.016H230.958V83.696H229.806V76.016ZM225.182 79.264H235.374V80.416H225.182V79.264ZM227.102 87.488H233.71V88.592H227.102V87.488ZM221.518 75.616L222.19 74.768C223.166 75.248 224.526 75.968 225.214 76.432L224.51 77.408C223.838 76.928 222.51 76.144 221.518 75.616ZM220.734 80.032L221.406 79.152C222.35 79.616 223.694 80.32 224.366 80.784L223.694 81.76C223.038 81.312 221.71 80.544 220.734 80.032ZM221.118 88.256C221.982 87.04 223.246 84.928 224.174 83.104L225.038 83.888C224.19 85.584 223.07 87.584 222.126 89.072L221.118 88.256ZM239.198 75.696H249.55V76.848H239.198V75.696ZM239.198 79.424H249.534V80.56H239.198V79.424ZM239.118 83.248H249.566V84.384H239.118V83.248ZM238.526 75.696H239.71V81.504C239.71 83.936 239.422 87.248 237.518 89.376C237.326 89.136 236.846 88.736 236.59 88.576C238.35 86.592 238.526 83.744 238.526 81.488V75.696ZM249.07 75.696H250.254V87.648C250.254 88.432 250.062 88.8 249.534 89.008C248.99 89.2 248.062 89.216 246.542 89.2C246.494 88.88 246.302 88.352 246.126 88.032C247.262 88.08 248.35 88.064 248.654 88.064C248.958 88.048 249.07 87.952 249.07 87.648V75.696ZM243.55 76.128H244.766V89.136H243.55V76.128ZM257.518 75.536C257.438 76.064 257.39 76.624 257.358 77.152C257.294 78.96 257.166 82.752 257.166 85.136C257.166 86.896 258.27 87.504 259.79 87.504C262.718 87.504 264.382 85.872 265.534 84.208L266.43 85.296C265.342 86.816 263.262 88.816 259.758 88.816C257.454 88.816 255.87 87.872 255.87 85.248C255.87 82.88 256.03 78.832 256.03 77.152C256.03 76.56 255.982 76 255.886 75.536H257.518ZM276.786 77.856C276.178 77.232 275.122 76.256 274.45 75.744L275.362 75.088C275.89 75.504 277.106 76.512 277.698 77.136L276.786 77.856ZM271.698 76.464C271.826 76.736 272.098 77.248 272.258 77.552C272.882 78.672 273.65 80.288 274.306 81.744C275.17 83.744 276.194 86.704 276.738 88.48L275.362 88.848C274.866 86.944 274.098 84.384 273.186 82.288C272.434 80.608 271.714 79.056 271.17 78.144C270.978 77.824 270.658 77.312 270.402 76.992L271.698 76.464ZM268.866 81.136C269.33 81.024 269.89 80.832 270.178 80.704C272.402 79.856 276.29 77.68 278.946 77.68C281.17 77.68 282.514 78.928 282.514 80.672C282.514 82.528 281.346 83.92 278.85 83.92C277.954 83.92 277.042 83.696 276.45 83.472L276.482 82.208C277.106 82.496 277.906 82.736 278.754 82.736C280.514 82.736 281.234 81.76 281.234 80.624C281.234 79.68 280.482 78.8 278.914 78.8C276.242 78.8 271.506 81.568 269.49 82.448L268.866 81.136ZM293.954 75.328C293.922 75.52 293.874 76.144 293.874 76.336C293.826 77.376 293.858 80.464 293.874 81.744L292.658 81.12C292.658 80.416 292.642 77.232 292.594 76.352C292.562 75.92 292.514 75.472 292.482 75.328H293.954ZM285.442 77.568C287.618 77.536 291.618 77.392 294.082 77.392C296.034 77.392 298.018 77.392 298.77 77.408L298.754 78.592C297.858 78.544 296.418 78.512 294.066 78.512C291.314 78.512 287.89 78.624 285.474 78.8L285.442 77.568ZM293.842 82.208C293.842 84.352 292.85 85.424 291.394 85.424C290.05 85.424 288.754 84.48 288.754 82.736C288.754 81.152 290.066 79.968 291.586 79.968C293.442 79.968 294.386 81.344 294.386 83.184C294.386 85.36 293.33 87.76 289.618 88.864L288.546 87.824C291.458 87.136 293.154 85.712 293.154 83.072C293.154 81.632 292.45 81.024 291.586 81.024C290.738 81.024 289.954 81.68 289.954 82.72C289.954 83.728 290.706 84.304 291.586 84.304C292.578 84.304 293.218 83.472 292.962 81.76L293.842 82.208ZM303.49 76.848C303.41 77.216 303.362 77.984 303.346 78.4C303.33 79.392 303.346 80.864 303.458 82.176C303.73 84.848 304.498 86.624 305.65 86.624C306.466 86.624 307.218 84.976 307.634 83.376L308.642 84.512C307.666 87.216 306.706 88.144 305.618 88.144C304.098 88.144 302.658 86.64 302.21 82.496C302.066 81.12 302.034 79.168 302.034 78.24C302.034 77.872 302.034 77.184 301.938 76.816L303.49 76.848ZM311.81 77.28C313.25 79.136 314.402 82.544 314.642 85.248L313.346 85.76C313.074 82.88 312.098 79.584 310.578 77.712L311.81 77.28Z" fill="black"/>
<rect x="32" y="140" width="152" height="28" fill="#0066FF" fill-opacity="0.25"/>
<path d="M60.704 153.104H75.344V154.416H60.704V153.104ZM80.592 147.952L80.208 150.72H87.664L87.888 147.952H80.592ZM79.536 147.152H89.152L88.784 151.52H78.96L79.536 147.152ZM83.664 147.536H84.768C84.672 148.72 84.512 150.176 84.368 151.088H83.248C83.408 150.144 83.584 148.672 83.664 147.536ZM76.816 148.816H79.792V148.896H88.128V148.816H91.184V149.808H88.128V149.728H79.792V149.808H76.816V148.816ZM80.048 154.928V156.016H88.112V154.928H80.048ZM80.048 156.8V157.92H88.112V156.8H80.048ZM80.048 153.056V154.144H88.112V153.056H80.048ZM78.88 152.256H89.312V158.72H78.88V152.256ZM85.328 159.536L86.256 158.912C88.032 159.456 89.968 160.144 91.136 160.672L89.888 161.312C88.864 160.8 87.104 160.112 85.328 159.536ZM81.568 158.896L82.656 159.392C81.36 160.16 79.328 160.896 77.728 161.344C77.536 161.104 77.12 160.64 76.848 160.432C78.496 160.08 80.416 159.52 81.568 158.896ZM94.736 146.56H95.952V161.264H94.736V146.56ZM93.264 149.6L94.176 149.744C94.096 151.04 93.808 152.896 93.376 154.048L92.432 153.728C92.864 152.656 93.152 150.896 93.264 149.6ZM96.064 149.504L96.896 149.136C97.392 150 97.888 151.136 98.064 151.824L97.168 152.272C96.992 151.568 96.512 150.4 96.064 149.504ZM99.328 147.312L100.496 147.504C100.08 149.84 99.376 152.112 98.48 153.616C98.24 153.44 97.696 153.184 97.392 153.056C98.336 151.648 98.976 149.472 99.328 147.312ZM99.344 149.952H106.784V151.104H98.976L99.344 149.952ZM101.936 146.624H103.136V160.224H101.936V146.624ZM98.528 154.432H106.432V155.568H98.528V154.432ZM97.328 159.568H107.168V160.72H97.328V159.568ZM114.784 147.584C114.72 147.872 114.656 148.224 114.592 148.528C114.48 149.104 114.272 150.416 114.048 151.408C113.504 153.664 112.368 157.648 110.56 160.56L109.248 160.048C111.072 157.6 112.352 153.328 112.784 151.376C113.088 150.096 113.296 148.656 113.296 147.424L114.784 147.584ZM120.288 149.424C121.28 150.72 122.672 153.632 123.216 155.104L121.968 155.696C121.504 154.064 120.24 151.28 119.12 149.952L120.288 149.424ZM109.024 151.088C109.52 151.12 109.936 151.104 110.448 151.088C111.648 151.056 114.896 150.704 115.984 150.704C117.408 150.704 118.576 151.248 118.576 153.408C118.576 155.312 118.32 157.856 117.648 159.184C117.152 160.256 116.352 160.528 115.312 160.528C114.704 160.528 113.936 160.416 113.44 160.288L113.216 158.96C113.888 159.168 114.736 159.28 115.184 159.28C115.776 159.28 116.256 159.152 116.576 158.464C117.088 157.376 117.344 155.296 117.344 153.568C117.344 152.096 116.672 151.824 115.648 151.824C114.576 151.824 111.568 152.192 110.592 152.288C110.224 152.336 109.568 152.416 109.152 152.48L109.024 151.088ZM120.464 147.104C120.864 147.68 121.44 148.656 121.776 149.312L120.912 149.696C120.592 149.04 120.048 148.08 119.6 147.472L120.464 147.104ZM122.224 146.464C122.656 147.056 123.264 148.064 123.584 148.656L122.704 149.04C122.368 148.336 121.84 147.424 121.376 146.832L122.224 146.464ZM131.536 147.344C131.472 147.536 131.408 147.824 131.36 148.048C131.088 149.392 130.816 151.92 130.816 154.112C130.816 156.192 131.264 158.112 131.76 159.616L130.592 159.968C130.128 158.544 129.696 156.272 129.696 154.24C129.696 152.048 130.016 149.456 130.16 148.08C130.192 147.792 130.208 147.504 130.208 147.296L131.536 147.344ZM128.96 149.312C131.776 149.312 134.56 149.088 136.768 148.592L136.784 149.776C134.48 150.176 131.328 150.416 128.944 150.416C128.256 150.416 127.008 150.352 126.352 150.32L126.32 149.12C126.88 149.216 128.272 149.312 128.96 149.312ZM135.632 151.2C135.536 151.408 135.392 151.84 135.296 152.096C134.352 155.056 132.752 157.28 131.072 158.576C130.048 159.36 128.768 159.952 127.632 159.952C126.576 159.952 125.744 159.312 125.744 157.952C125.744 155.76 127.776 153.504 130.144 152.592C131.216 152.176 132.512 151.936 133.552 151.936C136.576 151.936 138.48 153.696 138.48 155.936C138.48 158.224 136.96 160.224 133.248 160.816L132.56 159.744C135.44 159.424 137.232 157.936 137.232 155.872C137.232 154.32 135.92 152.96 133.536 152.96C132.192 152.96 131.008 153.344 130.192 153.712C128.384 154.512 126.944 156.272 126.944 157.744C126.944 158.4 127.264 158.72 127.856 158.72C128.656 158.72 129.696 158.272 130.72 157.376C132.144 156.128 133.456 154.4 134.192 151.808C134.256 151.568 134.336 151.136 134.352 150.88L135.632 151.2ZM143.808 148.224C144.16 148.256 144.608 148.272 144.928 148.272C145.776 148.272 149.568 148.16 150.416 148.08C150.896 148.032 151.12 148 151.296 147.936L152.032 148.88C151.744 149.072 151.424 149.28 151.12 149.52C150.336 150.128 148.16 152 146.912 153.024C147.648 152.784 148.416 152.704 149.136 152.704C151.792 152.704 153.696 154.288 153.696 156.448C153.696 159.024 151.568 160.704 148.176 160.704C146 160.704 144.672 159.76 144.672 158.416C144.672 157.328 145.664 156.336 147.136 156.336C149.264 156.336 150.336 157.84 150.448 159.456L149.296 159.648C149.2 158.288 148.416 157.312 147.136 157.312C146.4 157.312 145.84 157.76 145.84 158.32C145.84 159.104 146.72 159.568 147.984 159.568C150.704 159.568 152.416 158.448 152.416 156.448C152.416 154.864 150.912 153.696 148.816 153.696C146.16 153.696 144.72 154.816 142.704 156.88L141.776 155.952C143.104 154.864 145.168 153.136 146.08 152.352C146.976 151.616 148.992 149.936 149.792 149.216C148.944 149.264 145.744 149.392 144.912 149.44C144.544 149.472 144.192 149.488 143.84 149.536L143.808 148.224Z" fill="black"/>
<rect x="32" y="104" width="152" height="28" fill="#0066FF" fill-opacity="0.25"/>
<path d="M66.464 111.328H73.872V112.304H66.464V111.328ZM66.272 115.76H74.16V116.752H66.272V115.76ZM66.272 117.984H74.128V118.976H66.272V117.984ZM66.736 123.536H73.68V124.528H66.736V123.536ZM64.96 113.536H75.376V114.544H64.96V113.536ZM66.112 120.208H74.304V125.232H73.104V121.184H67.264V125.28H66.112V120.208ZM64.416 110.608L65.552 110.96C64.464 113.664 62.752 116.352 60.976 118.128C60.864 117.856 60.528 117.232 60.304 116.944C61.92 115.424 63.488 113.04 64.416 110.608ZM62.752 114.736L63.888 113.6L63.904 113.616V125.248H62.752V114.736ZM76.816 112.416H83.408V113.504H76.816V112.416ZM79.616 110.592H80.704V115.568H79.616V110.592ZM78.048 115.888V118.112H82.288V115.888H78.048ZM77.12 114.928H83.264V119.072H77.12V114.928ZM79.584 118.448L80.368 118.832C79.632 120.704 78.272 122.944 76.976 124.112C76.864 123.792 76.592 123.312 76.416 123.04C77.6 122.048 78.944 120.08 79.584 118.448ZM80.64 119.104C81.152 119.504 82.992 121.2 83.424 121.616L82.688 122.544C82.192 121.84 80.656 120.24 80.032 119.648L80.64 119.104ZM79.68 115.52H80.64V118.672H80.704V125.296H79.616V118.672H79.68V115.52ZM83.536 111.328H91.264V112.384H83.536V111.328ZM85.328 117.312V118.864H89.52V117.312H85.328ZM85.328 119.76V121.328H89.52V119.76H85.328ZM85.328 114.88V116.416H89.52V114.88H85.328ZM84.24 113.936H90.672V122.272H84.24V113.936ZM86.768 111.84L88.064 112.016C87.824 112.944 87.536 113.968 87.296 114.64L86.272 114.432C86.464 113.712 86.672 112.608 86.768 111.84ZM85.648 122.56L86.672 123.168C85.84 124 84.448 124.848 83.248 125.296C83.056 125.088 82.704 124.72 82.448 124.512C83.632 124.064 85.008 123.264 85.648 122.56ZM87.984 123.216L88.88 122.64C89.824 123.232 91.024 124.096 91.616 124.704L90.672 125.344C90.112 124.752 88.928 123.84 87.984 123.216ZM102.864 111.168L103.488 110.464C104.288 110.72 105.28 111.168 105.792 111.568L105.136 112.368C104.656 111.952 103.68 111.456 102.864 111.168ZM94.592 112.192H107.056V113.184H94.592V112.192ZM95.728 114.272H100.64V115.12H95.728V114.272ZM95.984 116.208H96.992V119.12H95.984V116.208ZM104.48 113.952L105.6 114.224C104.704 116.88 103.088 119.04 101.136 120.432C100.96 120.208 100.512 119.808 100.272 119.6C102.208 118.352 103.712 116.352 104.48 113.952ZM100.704 110.56H101.856C102.032 115.488 104.208 119.488 105.84 119.472C106.24 119.472 106.4 118.896 106.48 117.44C106.72 117.664 107.12 117.872 107.424 117.984C107.232 120.016 106.8 120.576 105.776 120.576C103.248 120.576 100.96 115.936 100.704 110.56ZM95.984 116.208H100.384V119.568H95.984V118.704H99.36V117.056H95.984V116.208ZM96.784 121.04H97.968V123.52C97.968 123.92 98.128 124 98.976 124C99.376 124 101.376 124 101.904 124C102.608 124 102.72 123.808 102.784 122.32C103.04 122.512 103.536 122.672 103.872 122.752C103.712 124.64 103.36 125.088 102 125.088C101.632 125.088 99.248 125.088 98.896 125.088C97.2 125.088 96.784 124.768 96.784 123.536V121.04ZM98.032 120.512L98.8 119.84C99.808 120.304 100.992 121.072 101.552 121.696L100.736 122.464C100.192 121.84 99.024 121.024 98.032 120.512ZM103.552 121.52L104.528 120.976C105.68 121.872 106.88 123.2 107.376 124.192L106.304 124.784C105.856 123.808 104.704 122.448 103.552 121.52ZM94.752 121.136L95.808 121.504C95.408 122.8 94.752 124.144 93.616 124.96L92.624 124.288C93.696 123.552 94.4 122.336 94.752 121.136ZM94.032 112.192H95.152V114.608C95.152 116.464 94.864 119.088 93.392 120.896C93.232 120.672 92.752 120.272 92.512 120.144C93.856 118.48 94.032 116.224 94.032 114.592V112.192ZM114.784 111.584C114.72 111.872 114.656 112.224 114.592 112.528C114.48 113.104 114.272 114.416 114.048 115.408C113.504 117.664 112.368 121.648 110.56 124.56L109.248 124.048C111.072 121.6 112.352 117.328 112.784 115.376C113.088 114.096 113.296 112.656 113.296 111.424L114.784 111.584ZM120.288 113.424C121.28 114.72 122.672 117.632 123.216 119.104L121.968 119.696C121.504 118.064 120.24 115.28 119.12 113.952L120.288 113.424ZM109.024 115.088C109.52 115.12 109.936 115.104 110.448 115.088C111.648 115.056 114.896 114.704 115.984 114.704C117.408 114.704 118.576 115.248 118.576 117.408C118.576 119.312 118.32 121.856 117.648 123.184C117.152 124.256 116.352 124.528 115.312 124.528C114.704 124.528 113.936 124.416 113.44 124.288L113.216 122.96C113.888 123.168 114.736 123.28 115.184 123.28C115.776 123.28 116.256 123.152 116.576 122.464C117.088 121.376 117.344 119.296 117.344 117.568C117.344 116.096 116.672 115.824 115.648 115.824C114.576 115.824 111.568 116.192 110.592 116.288C110.224 116.336 109.568 116.416 109.152 116.48L109.024 115.088ZM120.464 111.104C120.864 111.68 121.44 112.656 121.776 113.312L120.912 113.696C120.592 113.04 120.048 112.08 119.6 111.472L120.464 111.104ZM122.224 110.464C122.656 111.056 123.264 112.064 123.584 112.656L122.704 113.04C122.368 112.336 121.84 111.424 121.376 110.832L122.224 110.464ZM131.536 111.344C131.472 111.536 131.408 111.824 131.36 112.048C131.088 113.392 130.816 115.92 130.816 118.112C130.816 120.192 131.264 122.112 131.76 123.616L130.592 123.968C130.128 122.544 129.696 120.272 129.696 118.24C129.696 116.048 130.016 113.456 130.16 112.08C130.192 111.792 130.208 111.504 130.208 111.296L131.536 111.344ZM128.96 113.312C131.776 113.312 134.56 113.088 136.768 112.592L136.784 113.776C134.48 114.176 131.328 114.416 128.944 114.416C128.256 114.416 127.008 114.352 126.352 114.32L126.32 113.12C126.88 113.216 128.272 113.312 128.96 113.312ZM135.632 115.2C135.536 115.408 135.392 115.84 135.296 116.096C134.352 119.056 132.752 121.28 131.072 122.576C130.048 123.36 128.768 123.952 127.632 123.952C126.576 123.952 125.744 123.312 125.744 121.952C125.744 119.76 127.776 117.504 130.144 116.592C131.216 116.176 132.512 115.936 133.552 115.936C136.576 115.936 138.48 117.696 138.48 119.936C138.48 122.224 136.96 124.224 133.248 124.816L132.56 123.744C135.44 123.424 137.232 121.936 137.232 119.872C137.232 118.32 135.92 116.96 133.536 116.96C132.192 116.96 131.008 117.344 130.192 117.712C128.384 118.512 126.944 120.272 126.944 121.744C126.944 122.4 127.264 122.72 127.856 122.72C128.656 122.72 129.696 122.272 130.72 121.376C132.144 120.128 133.456 118.4 134.192 115.808C134.256 115.568 134.336 115.136 134.352 114.88L135.632 115.2ZM143.808 112.224C144.16 112.256 144.608 112.272 144.928 112.272C145.776 112.272 149.568 112.16 150.416 112.08C150.896 112.032 151.12 112 151.296 111.936L152.032 112.88C151.744 113.072 151.424 113.28 151.12 113.52C150.336 114.128 148.16 116 146.912 117.024C147.648 116.784 148.416 116.704 149.136 116.704C151.792 116.704 153.696 118.288 153.696 120.448C153.696 123.024 151.568 124.704 148.176 124.704C146 124.704 144.672 123.76 144.672 122.416C144.672 121.328 145.664 120.336 147.136 120.336C149.264 120.336 150.336 121.84 150.448 123.456L149.296 123.648C149.2 122.288 148.416 121.312 147.136 121.312C146.4 121.312 145.84 121.76 145.84 122.32C145.84 123.104 146.72 123.568 147.984 123.568C150.704 123.568 152.416 122.448 152.416 120.448C152.416 118.864 150.912 117.696 148.816 117.696C146.16 117.696 144.72 118.816 142.704 120.88L141.776 119.952C143.104 118.864 145.168 117.136 146.08 116.352C146.976 115.616 148.992 113.936 149.792 113.216C148.944 113.264 145.744 113.392 144.912 113.44C144.544 113.472 144.192 113.488 143.84 113.536L143.808 112.224Z" fill="black"/>
<rect x="32.5" y="68.5" width="151" height="27" rx="5.5" fill="white" stroke="#0066FF"/>
<path d="M60.96 76.24H67.664V77.28H60.96V76.24ZM60.64 79.984H67.84V81.008H60.64V79.984ZM63.776 74.608H64.928V76.912H63.776V74.608ZM63.808 80.944H64.96V89.28H63.808V80.944ZM63.792 83.056L64.64 83.552C63.92 85.264 62.512 87.136 61.184 88.192C61.024 87.904 60.736 87.488 60.48 87.264C61.76 86.4 63.136 84.672 63.792 83.056ZM64.816 83.952C65.376 84.336 67.28 85.936 67.712 86.336L66.96 87.248C66.416 86.592 64.816 85.04 64.176 84.48L64.816 83.952ZM61.936 77.552L62.88 77.344C63.216 78.08 63.504 79.072 63.568 79.728L62.56 79.968C62.512 79.328 62.256 78.304 61.936 77.552ZM65.792 77.312L66.88 77.568C66.592 78.4 66.288 79.344 66.016 79.968L65.088 79.728C65.328 79.072 65.648 78.016 65.792 77.312ZM69.472 78.96V80.624H73.488V78.96H69.472ZM69.472 81.6V83.28H73.488V81.6H69.472ZM69.472 76.336V77.984H73.488V76.336H69.472ZM68.384 75.264H74.624V84.352H68.384V75.264ZM71.824 84H72.912V87.616C72.912 87.968 72.96 88.016 73.264 88.016C73.376 88.016 73.952 88.016 74.112 88.016C74.432 88.016 74.48 87.808 74.512 85.888C74.752 86.096 75.216 86.272 75.52 86.352C75.44 88.56 75.136 89.088 74.256 89.088C74.032 89.088 73.296 89.088 73.088 89.088C72.048 89.088 71.824 88.736 71.824 87.632V84ZM69.456 84.064H70.56C70.352 86.656 69.744 88.368 67.248 89.328C67.136 89.072 66.816 88.656 66.576 88.448C68.8 87.664 69.28 86.256 69.456 84.064ZM60.8 82.64H67.696V83.68H60.8V82.64ZM81.44 75.536C81.36 76.064 81.312 76.624 81.28 77.152C81.216 78.96 81.088 82.752 81.088 85.136C81.088 86.896 82.192 87.504 83.712 87.504C86.64 87.504 88.304 85.872 89.456 84.208L90.352 85.296C89.264 86.816 87.184 88.816 83.68 88.816C81.376 88.816 79.792 87.872 79.792 85.248C79.792 82.88 79.952 78.832 79.952 77.152C79.952 76.56 79.904 76 79.808 75.536H81.44ZM95.568 76.272C95.968 76.304 96.432 76.32 96.768 76.32C97.616 76.32 99.712 76.224 100.384 76.16C100.688 76.144 100.96 76.08 101.184 76L101.984 76.64C101.824 76.816 101.696 76.976 101.568 77.184C101.056 78.016 100.176 80.064 99.44 81.712C98.8 83.12 97.92 85.296 97.232 86.288C96.672 87.104 96.048 87.408 95.216 87.408C94.032 87.408 93.152 86.544 93.152 85.216C93.152 82.8 95.424 80.96 98.672 80.96C102.272 80.96 105.44 82.88 107.168 84.112L106.576 85.472C104.704 83.856 101.776 82.08 98.48 82.08C95.824 82.08 94.304 83.568 94.304 85.04C94.304 85.76 94.768 86.128 95.264 86.128C95.632 86.128 95.904 86 96.24 85.568C96.896 84.704 97.616 82.848 98.224 81.504C98.864 80.112 99.584 78.464 100.128 77.328C99.488 77.344 97.536 77.44 96.816 77.472C96.464 77.488 96 77.536 95.616 77.584L95.568 76.272ZM105.568 79.776C105.344 84.336 104.416 87.104 100.688 88.976L99.632 88.096C103.392 86.512 104.08 83.488 104.256 81.12C104.288 80.64 104.304 80.096 104.256 79.632L105.568 79.776ZM116.864 77.856C116.256 77.232 115.2 76.256 114.528 75.744L115.44 75.088C115.968 75.504 117.184 76.512 117.776 77.136L116.864 77.856ZM111.776 76.464C111.904 76.736 112.176 77.248 112.336 77.552C112.96 78.672 113.728 80.288 114.384 81.744C115.248 83.744 116.272 86.704 116.816 88.48L115.44 88.848C114.944 86.944 114.176 84.384 113.264 82.288C112.512 80.608 111.792 79.056 111.248 78.144C111.056 77.824 110.736 77.312 110.48 76.992L111.776 76.464ZM108.944 81.136C109.408 81.024 109.968 80.832 110.256 80.704C112.48 79.856 116.368 77.68 119.024 77.68C121.248 77.68 122.592 78.928 122.592 80.672C122.592 82.528 121.424 83.92 118.928 83.92C118.032 83.92 117.12 83.696 116.528 83.472L116.56 82.208C117.184 82.496 117.984 82.736 118.832 82.736C120.592 82.736 121.312 81.76 121.312 80.624C121.312 79.68 120.56 78.8 118.992 78.8C116.32 78.8 111.584 81.568 109.568 82.448L108.944 81.136ZM134.032 75.328C134 75.52 133.952 76.144 133.952 76.336C133.904 77.376 133.936 80.464 133.952 81.744L132.736 81.12C132.736 80.416 132.72 77.232 132.672 76.352C132.64 75.92 132.592 75.472 132.56 75.328H134.032ZM125.52 77.568C127.696 77.536 131.696 77.392 134.16 77.392C136.112 77.392 138.096 77.392 138.848 77.408L138.832 78.592C137.936 78.544 136.496 78.512 134.144 78.512C131.392 78.512 127.968 78.624 125.552 78.8L125.52 77.568ZM133.92 82.208C133.92 84.352 132.928 85.424 131.472 85.424C130.128 85.424 128.832 84.48 128.832 82.736C128.832 81.152 130.144 79.968 131.664 79.968C133.52 79.968 134.464 81.344 134.464 83.184C134.464 85.36 133.408 87.76 129.696 88.864L128.624 87.824C131.536 87.136 133.232 85.712 133.232 83.072C133.232 81.632 132.528 81.024 131.664 81.024C130.816 81.024 130.032 81.68 130.032 82.72C130.032 83.728 130.784 84.304 131.664 84.304C132.656 84.304 133.296 83.472 133.04 81.76L133.92 82.208ZM143.568 76.848C143.488 77.216 143.44 77.984 143.424 78.4C143.408 79.392 143.424 80.864 143.536 82.176C143.808 84.848 144.576 86.624 145.728 86.624C146.544 86.624 147.296 84.976 147.712 83.376L148.72 84.512C147.744 87.216 146.784 88.144 145.696 88.144C144.176 88.144 142.736 86.64 142.288 82.496C142.144 81.12 142.112 79.168 142.112 78.24C142.112 77.872 142.112 77.184 142.016 76.816L143.568 76.848ZM151.888 77.28C153.328 79.136 154.48 82.544 154.72 85.248L153.424 85.76C153.152 82.88 152.176 79.584 150.656 77.712L151.888 77.28Z" fill="black"/>
<rect x="32.5" y="32.5" width="471" height="27" rx="5.5" fill="white" stroke="#0066FF"/>
<path d="M179.842 43.376V45.44H185.794V43.376H179.842ZM179.842 40.352V42.384H185.794V40.352H179.842ZM178.754 39.312H186.946V46.48H178.754V39.312ZM178.546 48.352H187.17V49.456H178.546V48.352ZM177.314 51.664H187.698V52.752H177.314V51.664ZM172.962 39.648H177.954V40.784H172.962V39.648ZM173.138 44.272H177.73V45.408H173.138V44.272ZM172.802 50.4C174.098 50.048 176.018 49.424 177.874 48.8L178.082 49.952C176.338 50.544 174.514 51.152 173.09 51.632L172.802 50.4ZM174.962 40.096H176.114V50.016L174.962 50.24V40.096ZM182.29 39.808H183.346V45.968H183.426V52.16H182.21V45.968H182.29V39.808ZM192.754 48.816H193.938V51.36C193.938 51.792 194.098 51.856 195.042 51.856C195.474 51.856 197.634 51.856 198.21 51.856C198.994 51.856 199.122 51.632 199.186 50C199.458 50.208 199.954 50.368 200.29 50.448C200.13 52.464 199.762 52.944 198.306 52.944C197.922 52.944 195.33 52.944 194.962 52.944C193.218 52.944 192.754 52.624 192.754 51.376V48.816ZM194.866 48.256L195.698 47.632C196.45 48.336 197.426 49.312 197.922 49.92L197.058 50.64C196.578 50.032 195.618 48.992 194.866 48.256ZM200.498 48.784L201.554 48.32C202.21 49.344 203.074 50.72 203.474 51.536L202.37 52.096C201.986 51.264 201.154 49.84 200.498 48.784ZM190.482 48.624L191.538 49.04C191.202 50.112 190.69 51.552 190.034 52.448L188.978 51.904C189.634 51.056 190.178 49.696 190.482 48.624ZM189.106 40.96H195.73V42H189.106V40.96ZM192.05 38.608H193.186V47.936H192.05V38.608ZM192.002 41.6L192.834 41.888C192.13 43.872 190.818 45.92 189.538 46.992C189.346 46.72 188.994 46.336 188.754 46.144C190.018 45.232 191.33 43.36 192.002 41.6ZM193.09 42.848C193.618 43.168 195.41 44.496 195.858 44.848L195.202 45.808C194.642 45.248 193.09 43.92 192.45 43.44L193.09 42.848ZM197.538 42.832V44.336H201.538V42.832H197.538ZM197.538 45.264V46.784H201.538V45.264H197.538ZM197.538 40.4V41.872H201.538V40.4H197.538ZM196.434 39.408H202.69V47.776H196.434V39.408ZM206.338 41.136H211.202V51.6H206.338V50.512H210.082V42.208H206.338V41.136ZM205.618 41.136H206.738V52.88H205.618V41.136ZM206.258 45.584H210.674V46.656H206.258V45.584ZM208.066 38.528L209.362 38.768C209.042 39.76 208.642 40.864 208.322 41.584L207.362 41.344C207.634 40.576 207.938 39.36 208.066 38.528ZM213.474 41.088H218.386V42.208H213.474V41.088ZM217.97 41.088H219.09C219.09 41.088 219.09 41.536 219.09 41.712C218.834 49.056 218.61 51.536 217.97 52.32C217.618 52.784 217.25 52.928 216.69 52.976C216.146 53.04 215.202 53.008 214.306 52.96C214.274 52.608 214.13 52.112 213.906 51.792C214.946 51.872 215.906 51.888 216.274 51.888C216.594 51.888 216.786 51.84 216.962 51.632C217.49 51.056 217.746 48.4 217.97 41.344V41.088ZM213.81 38.496L214.962 38.768C214.37 41.152 213.426 43.504 212.322 45.024C212.114 44.832 211.618 44.496 211.33 44.336C212.418 42.928 213.298 40.72 213.81 38.496ZM213.074 45.248L214.002 44.704C214.914 45.84 216.018 47.392 216.53 48.336L215.506 48.976C215.026 48 213.954 46.416 213.074 45.248ZM221.778 41.92C222.37 41.984 223.058 42.016 223.746 42.016C225.474 42.016 227.49 41.808 229.33 41.2L229.362 42.384C227.794 42.816 225.698 43.168 223.746 43.152C223.154 43.152 222.466 43.136 221.874 43.12L221.778 41.92ZM227.458 39.312C227.25 40.096 226.914 41.6 226.53 42.736C225.762 45.04 224.29 47.952 222.962 49.744L221.73 49.104C223.154 47.44 224.642 44.592 225.298 42.704C225.65 41.696 226.002 40.288 226.05 39.168L227.458 39.312ZM231.234 44.256C231.186 44.912 231.186 45.392 231.202 45.968C231.234 47.008 231.378 49.44 231.378 50.496C231.378 51.776 230.562 52.816 228.578 52.816C226.818 52.816 225.394 52.112 225.394 50.512C225.394 49.04 226.786 48.112 228.578 48.112C231.266 48.112 233.33 49.456 234.642 50.592L233.97 51.68C232.738 50.56 230.898 49.136 228.546 49.136C227.362 49.136 226.562 49.68 226.562 50.416C226.562 51.152 227.186 51.664 228.434 51.664C229.762 51.664 230.21 50.96 230.21 50.096C230.21 48.88 230.034 46.016 229.97 44.256H231.234ZM234.434 44.672C233.57 43.936 231.826 42.96 230.77 42.464L231.41 41.504C232.578 42 234.386 43.04 235.154 43.616L234.434 44.672ZM239.49 40.32C239.938 40.368 240.418 40.4 240.93 40.4C241.858 40.4 245.586 40.4 246.482 40.4C246.93 40.4 247.506 40.368 247.97 40.32V41.648C247.49 41.616 246.93 41.584 246.482 41.584C245.586 41.584 241.858 41.584 240.962 41.584C240.418 41.584 239.906 41.616 239.49 41.648V40.32ZM237.586 44.336C238.018 44.384 238.482 44.416 238.978 44.416C239.906 44.416 248.594 44.416 249.442 44.416C249.778 44.416 250.306 44.384 250.706 44.336V45.664C250.354 45.632 249.842 45.616 249.442 45.616C248.594 45.616 239.906 45.616 238.978 45.616C238.498 45.616 238.018 45.632 237.586 45.664V44.336ZM245.122 44.976C245.122 46.992 244.866 48.656 244.162 50C243.57 51.072 242.37 52.224 241.01 52.912L239.826 52.048C241.058 51.52 242.21 50.608 242.85 49.584C243.65 48.32 243.762 46.752 243.778 44.992L245.122 44.976ZM248.802 39.008C249.202 39.584 249.778 40.56 250.098 41.2L249.234 41.584C248.93 40.944 248.386 39.984 247.954 39.376L248.802 39.008ZM250.546 38.368C250.978 38.96 251.586 39.952 251.89 40.544L251.042 40.928C250.69 40.24 250.162 39.328 249.714 38.736L250.546 38.368ZM264.978 39.808C265.282 40.384 265.698 41.376 265.922 42.016L265.122 42.288C264.898 41.616 264.53 40.656 264.21 40.048L264.978 39.808ZM266.578 39.312C266.882 39.904 267.298 40.88 267.538 41.52L266.738 41.792C266.482 41.072 266.13 40.16 265.794 39.552L266.578 39.312ZM263.458 44.944C263.458 49.2 262.546 51.392 258.898 53.024L257.81 52.016C260.722 50.896 262.178 49.52 262.178 45.04V41.152C262.178 40.528 262.13 40 262.098 39.84H263.538C263.522 40 263.458 40.528 263.458 41.152V44.944ZM257.698 39.952C257.682 40.096 257.618 40.544 257.618 41.104V46.976C257.618 47.552 257.666 48.256 257.682 48.416H256.274C256.29 48.256 256.338 47.584 256.338 46.976V41.104C256.338 40.768 256.322 40.304 256.274 39.952H257.698ZM253.01 43.056C253.154 43.072 253.938 43.152 254.626 43.152H265.218C265.922 43.152 266.466 43.104 266.69 43.072V44.432C266.514 44.4 265.922 44.384 265.218 44.384H254.626C253.922 44.384 253.202 44.416 253.01 44.432V43.056ZM269.618 46.224C272.386 45.488 274.818 44.352 276.594 43.248C278.274 42.192 279.874 40.816 280.978 39.472L282.05 40.48C280.674 41.904 278.994 43.248 277.122 44.416C275.362 45.504 272.818 46.672 270.242 47.472L269.618 46.224ZM276.338 43.904L277.714 43.488V50.8C277.714 51.392 277.746 52.192 277.826 52.496H276.242C276.29 52.192 276.338 51.392 276.338 50.8V43.904ZM287.874 40.288C288.994 41.04 291.058 42.704 291.938 43.584L290.946 44.608C290.13 43.776 288.146 42.048 286.946 41.264L287.874 40.288ZM286.498 51.008C289.282 50.592 291.362 49.616 292.882 48.672C295.362 47.12 297.298 44.752 298.226 42.768L298.994 44.144C297.906 46.128 296.05 48.304 293.634 49.824C292.018 50.832 290.002 51.824 287.33 52.32L286.498 51.008ZM305.042 39.712C305.986 40.24 307.826 41.472 308.53 41.984L307.778 43.072C307.01 42.48 305.266 41.328 304.338 40.8L305.042 39.712ZM302.642 51.152C304.402 50.848 306.386 50.208 308.018 49.296C310.674 47.776 312.786 45.68 314.066 43.424L314.85 44.752C313.458 46.896 311.25 48.96 308.69 50.464C307.074 51.408 304.866 52.144 303.394 52.448L302.642 51.152ZM302.642 43.312C303.586 43.824 305.458 44.976 306.146 45.472L305.41 46.592C304.626 46.016 302.898 44.912 301.922 44.4L302.642 43.312ZM329.026 41.312C328.93 41.44 328.722 41.792 328.642 42C328.002 43.584 326.786 45.824 325.458 47.296C323.666 49.296 321.378 51.2 318.85 52.352L317.826 51.28C320.418 50.288 322.77 48.368 324.418 46.544C325.506 45.312 326.674 43.408 327.09 42.08C326.514 42.08 321.394 42.08 320.85 42.08C320.274 42.08 319.41 42.144 319.234 42.16V40.72C319.442 40.752 320.354 40.816 320.85 40.816C321.474 40.816 326.418 40.816 327.026 40.816C327.538 40.816 327.97 40.768 328.226 40.688L329.026 41.312ZM325.666 46.464C327.394 47.904 329.522 50.144 330.61 51.472L329.506 52.448C328.354 50.928 326.482 48.88 324.754 47.36L325.666 46.464ZM335.666 40.176C336.13 40.224 336.594 40.256 337.122 40.256C338.05 40.256 342.706 40.256 343.602 40.256C344.05 40.256 344.626 40.224 345.09 40.176V41.504C344.61 41.472 344.05 41.44 343.602 41.44C342.706 41.44 338.05 41.44 337.138 41.44C336.61 41.44 336.082 41.472 335.666 41.504V40.176ZM333.762 44.192C334.194 44.24 334.658 44.256 335.154 44.256C336.082 44.256 344.77 44.256 345.618 44.256C345.954 44.256 346.482 44.24 346.882 44.192V45.504C346.514 45.488 346.018 45.472 345.618 45.472C344.77 45.472 336.082 45.472 335.154 45.472C334.674 45.472 334.194 45.488 333.762 45.52V44.192ZM341.298 44.832C341.298 46.848 341.042 48.512 340.322 49.856C339.746 50.928 338.53 52.064 337.186 52.768L336.002 51.904C337.234 51.376 338.386 50.464 339.01 49.44C339.81 48.176 339.938 46.608 339.954 44.848L341.298 44.832ZM356.11 40.08C355.95 40.464 355.774 40.88 355.55 41.568C355.038 43.2 353.182 48.944 352.494 50.56L351.054 50.608C351.854 48.768 353.71 42.976 354.19 41.28C354.398 40.544 354.462 40.176 354.51 39.744L356.11 40.08ZM359.15 45.44C360.27 47.072 362.03 50.304 362.686 51.952L361.358 52.544C360.718 50.816 359.086 47.488 357.934 45.968L359.15 45.44ZM350.43 50.224C352.734 50.112 358.462 49.472 360.526 49.168L360.878 50.416C358.654 50.704 352.766 51.344 350.51 51.568C350.11 51.6 349.63 51.664 349.182 51.728L348.926 50.256C349.406 50.272 349.966 50.256 350.43 50.224Z" fill="#333333"/>
<rect x="0.5" y="0.5" width="535" height="200" stroke="#555555"/>
</svg>
