<svg width="475" height="128" viewBox="0 0 475 128" fill="none" xmlns="http://www.w3.org/2000/svg">
<g clip-path="url(#clip0_1_20)">
<rect x="15.94" y="16" width="32" height="64" fill="#0066FF"/>
<rect x="79.94" y="48" width="32" height="64" fill="#0066FF"/>
<rect x="79.94" y="16" width="32" height="32" fill="#0066FF"/>
<rect x="15.94" y="80" width="32" height="32" fill="#0066FF"/>
<path d="M47.95 16L79.9496 48.025L15.9504 48.025L47.95 16Z" fill="#0066FF"/>
<path d="M79.94 112L47.9404 79.975H111.94L79.94 112Z" fill="#0066FF"/>
<path d="M312.464 118.912C311.024 118.912 310.064 117.952 310.064 116.512V50.464C310.064 49.024 311.024 48.064 312.464 48.064H321.488C322.544 48.064 323.504 48.832 323.792 49.888L323.984 50.56C324.368 52.096 325.424 52.48 326.672 51.52C330.416 48.736 334.832 46.816 339.344 46.816C351.824 46.816 359.6 57.184 359.6 73.216C359.6 91.072 348.944 101.248 337.808 101.248C334.736 101.248 331.664 100.288 328.88 98.464C326.864 97.12 325.904 97.504 326.096 99.904L326.288 104.032V116.512C326.288 117.952 325.328 118.912 323.888 118.912H312.464ZM333.968 88C338.96 88 342.896 83.872 342.896 73.504C342.896 64.384 340.304 60.064 334.544 60.064C331.664 60.064 329.264 61.312 326.672 64C326.48 64.192 326.288 64.576 326.288 64.96V84.256C326.288 84.64 326.48 85.12 326.768 85.312C329.168 87.328 331.76 88 333.968 88Z" fill="#333333"/>
<path d="M365.464 118.912C364.024 118.912 363.064 117.952 363.064 116.512V50.464C363.064 49.024 364.024 48.064 365.464 48.064H374.488C375.544 48.064 376.504 48.832 376.792 49.888L376.984 50.56C377.368 52.096 378.424 52.48 379.672 51.52C383.416 48.736 387.832 46.816 392.344 46.816C404.824 46.816 412.6 57.184 412.6 73.216C412.6 91.072 401.944 101.248 390.808 101.248C387.736 101.248 384.664 100.288 381.88 98.464C379.864 97.12 378.904 97.504 379.096 99.904L379.288 104.032V116.512C379.288 117.952 378.328 118.912 376.888 118.912H365.464ZM386.968 88C391.96 88 395.896 83.872 395.896 73.504C395.896 64.384 393.304 60.064 387.544 60.064C384.664 60.064 382.264 61.312 379.672 64C379.48 64.192 379.288 64.576 379.288 64.96V84.256C379.288 84.64 379.48 85.12 379.768 85.312C382.168 87.328 384.76 88 386.968 88Z" fill="#333333"/>
<path d="M188 100C186.56 100 185.6 99.04 185.6 97.6V34.528C185.6 33.088 186.56 32.128 188 32.128H199.52C200.96 32.128 201.92 33.088 201.92 34.528L202.016 51.52C202.016 55.936 203.744 56.512 206.336 52.96L220.736 33.088C221.12 32.512 221.888 32.128 222.656 32.128H234.464C237.344 32.128 238.112 33.664 236.384 35.968L219.776 58.048C219.2 58.816 219.104 59.776 219.68 60.544V60.736L240.896 96.352C242.24 98.56 241.376 100 238.88 100H226.592C225.824 100 224.96 99.52 224.576 98.752L211.136 75.328C210.08 73.408 208.448 73.312 207.104 75.136L202.4 81.568C202.112 81.952 201.92 82.528 201.92 83.008V97.6C201.92 99.04 200.96 100 199.52 100H188ZM291.201 100C290.145 100 289.185 99.232 288.897 98.176L285.921 86.272C285.633 85.216 284.673 84.448 283.617 84.448H267.201C266.145 84.448 265.185 85.216 264.897 86.272L261.921 98.176C261.633 99.232 260.673 100 259.617 100H248.097C246.177 100 245.217 98.752 245.793 96.928L265.473 33.856C265.761 32.8 266.625 32.128 267.681 32.128H283.713C284.769 32.128 285.633 32.8 285.921 33.856L305.601 96.928C306.177 98.752 305.217 100 303.297 100H291.201ZM268.929 69.952C268.641 71.008 269.217 71.776 270.369 71.776H280.545C281.601 71.776 282.177 71.104 281.889 69.952L280.929 66.112C279.585 61.12 278.145 55.36 276.801 49.984C275.937 46.624 274.881 46.624 274.017 49.984L269.985 66.112L268.929 69.952Z" fill="#333333"/>
<path d="M130.096 100C128.656 100 127.696 99.04 127.696 97.6V34.528C127.696 33.088 128.656 32.128 130.096 32.128H142.864C143.728 32.128 144.592 32.608 144.976 33.472L161.104 64.576L164.56 72.064C166.672 76.672 167.632 76.384 167.056 71.392C166.576 65.824 166.096 59.872 166.096 54.592V34.528C166.096 33.088 167.056 32.128 168.496 32.128H179.152C180.592 32.128 181.552 33.088 181.552 34.528V97.6C181.552 99.04 180.592 100 179.152 100H166.384C165.52 100 164.656 99.52 164.272 98.656L148.144 67.264L141.52 52.384H141.04C141.808 59.968 143.152 69.28 143.152 77.44V97.6C143.152 99.04 142.192 100 140.752 100H130.096Z" fill="#333333"/>
<path d="M435.328 101.248C429.28 101.248 422.272 98.944 417.088 95.296C416.032 94.528 415.84 93.28 416.608 92.128L421.12 85.888C421.984 84.64 423.328 84.544 424.576 85.312C428.512 88 432.16 89.344 435.712 89.344C439.936 89.344 441.76 87.808 441.76 85.216C441.76 82.144 436.768 80.704 431.488 78.592C425.248 76.096 417.952 71.872 417.952 63.328C417.952 53.44 426.016 46.816 438.016 46.816C445.12 46.816 450.496 49.216 454.72 52.096C455.872 52.864 456.064 54.208 455.2 55.36L450.688 61.312C449.92 62.368 448.576 62.56 447.424 61.888C444.448 60.064 441.472 58.816 438.592 58.816C434.944 58.816 433.12 60.064 433.12 62.56C433.12 65.632 437.92 66.784 443.296 68.704C449.728 71.2 456.928 74.944 456.928 84.352C456.928 93.856 449.44 101.248 435.328 101.248Z" fill="#333333"/>
</g>
<defs>
<clipPath id="clip0_1_20">
<rect width="475" height="128" fill="white"/>
</clipPath>
</defs>
</svg>
